<?xml version="1.0" encoding="UTF-8" standalone="no"?>
<!DOCTYPE svg PUBLIC "-//W3C//DTD SVG 20010904//EN"
              "http://www.w3.org/TR/2001/REC-SVG-20010904/DTD/svg10.dtd">

<svg xmlns="http://www.w3.org/2000/svg"
     width="1.2in" height="0.1in"
     viewBox="0 0 1100 300">
  <path id="Selection"
        fill="white" stroke="black" stroke-width="1"
        d="M 803.00,89.00
           C 794.81,87.01 786.31,86.95 778.00,87.84
             762.15,89.53 749.84,92.62 739.53,106.00
             732.58,115.02 729.17,127.93 727.25,139.00
             723.52,160.46 718.99,183.05 739.00,198.47
             742.24,200.97 745.16,202.35 749.00,203.64
             753.90,205.30 756.83,205.94 762.00,206.00
             778.76,206.19 784.47,205.71 801.00,202.92
             804.74,202.29 812.74,201.22 815.30,198.49
             817.58,196.07 818.05,191.21 818.59,188.00
             818.59,188.00 822.39,167.00 822.39,167.00
             822.39,167.00 837.58,81.00 837.58,81.00
             837.58,81.00 841.13,60.00 841.13,60.00
             841.61,57.76 842.54,53.65 841.13,51.74
             839.32,49.63 834.48,50.00 832.00,50.00
             832.00,50.00 818.00,50.00 818.00,50.00
             815.57,50.04 812.60,49.93 810.72,51.74
             808.65,53.74 807.75,60.10 807.25,63.00
             807.25,63.00 803.00,89.00 803.00,89.00 Z
           M 113.00,53.42
           C 99.70,55.32 89.27,55.98 78.00,64.68
             60.36,78.29 57.45,107.70 73.09,123.96
             79.37,130.49 95.62,139.98 104.00,145.67
             108.80,148.93 115.22,153.67 115.70,160.00
             116.25,167.38 109.59,173.29 103.00,174.96
             92.54,177.60 75.25,174.13 64.00,174.00
             61.21,173.97 56.70,173.59 54.56,175.60
             52.10,177.90 50.51,190.29 50.17,194.00
             50.00,195.83 49.80,198.75 50.99,200.28
             52.36,202.03 56.86,202.87 59.00,203.34
             63.87,204.40 75.12,205.94 80.00,206.00
             97.90,206.21 113.69,206.64 130.00,197.69
             145.05,189.42 151.40,177.59 153.16,161.00
             154.18,151.47 153.49,144.09 147.70,136.00
             139.69,124.81 124.42,116.91 113.00,109.33
             108.70,106.48 100.29,101.40 99.41,96.00
             99.08,94.00 99.81,91.71 100.85,90.02
             105.87,81.88 116.88,83.99 125.00,84.00
             125.00,84.00 150.00,85.14 150.00,85.14
             152.87,85.16 157.34,86.30 159.86,85.14
             164.36,83.37 165.40,69.69 166.19,65.00
             166.64,62.39 167.18,59.93 164.68,58.16
             162.39,56.53 152.20,55.31 149.00,54.95
             137.59,53.67 124.40,52.04 113.00,53.42 Z
           M 656.00,114.00
           C 656.91,107.14 658.78,92.12 663.39,87.22
             666.91,83.49 672.18,83.06 677.00,83.00
             677.00,83.00 709.00,83.00 709.00,83.00
             711.27,83.00 714.77,83.21 716.72,81.98
             720.05,79.88 720.88,70.87 721.58,67.00
             722.14,63.87 723.90,58.45 720.68,56.43
             718.72,55.20 714.37,55.03 712.00,54.72
             712.00,54.72 691.00,53.00 691.00,53.00
             674.97,52.82 654.37,52.14 641.04,62.29
             629.71,70.91 626.64,82.78 624.00,96.00
             624.00,96.00 615.58,143.00 615.58,143.00
             615.58,143.00 611.04,171.00 611.04,171.00
             610.89,174.84 611.33,178.27 612.24,182.00
             618.61,208.15 648.16,206.03 669.00,206.00
             669.00,206.00 689.00,204.27 689.00,204.27
             691.74,203.86 694.42,203.74 696.44,201.57
             698.67,199.17 700.72,186.61 700.91,183.00
             700.99,181.39 701.03,178.93 699.98,177.60
             698.42,175.62 694.30,176.00 692.00,176.00
             692.00,176.00 659.00,176.00 659.00,176.00
             655.62,175.95 652.05,175.82 649.41,173.35
             644.81,168.99 648.32,156.66 649.41,151.00
             649.81,148.79 650.13,145.23 651.74,143.60
             653.65,141.65 657.46,142.01 660.00,142.00
             660.00,142.00 698.00,142.00 698.00,142.00
             708.81,141.93 707.61,137.82 709.42,126.00
             710.07,123.09 711.47,117.96 709.42,115.60
             707.43,113.66 703.47,114.00 701.00,114.00
             701.00,114.00 656.00,114.00 656.00,114.00 Z
           M 352.00,87.42
           C 352.00,87.42 340.00,88.17 340.00,88.17
             340.00,88.17 321.00,90.92 321.00,90.92
             317.78,91.47 310.80,92.64 308.43,94.72
             305.22,97.54 303.40,113.18 302.59,118.00
             302.59,118.00 291.25,182.00 291.25,182.00
             291.25,182.00 283.20,228.00 283.20,228.00
             280.95,239.71 279.49,242.85 288.00,243.00
             288.00,243.00 305.00,243.00 305.00,243.00
             307.56,242.99 311.33,243.35 313.27,241.40
             314.99,239.68 315.51,235.38 315.92,233.00
             315.92,233.00 318.92,216.00 318.92,216.00
             319.38,213.27 319.88,207.61 322.43,206.06
             323.93,205.22 331.64,206.00 334.00,206.06
             350.65,206.03 367.41,204.80 379.83,191.91
             384.31,187.26 388.04,180.88 390.69,175.00
             394.20,167.21 396.00,157.43 397.41,149.00
             401.13,126.85 403.16,103.37 379.00,91.79
             374.94,89.84 371.45,88.80 367.00,88.13
             360.91,87.21 358.23,86.67 352.00,87.42 Z
           M 504.00,177.00
           C 504.00,177.00 469.00,178.00 469.00,178.00
             461.30,178.02 451.83,179.81 446.43,172.95
             443.12,168.73 444.00,162.16 444.00,157.00
             444.00,157.00 503.00,157.00 503.00,157.00
             505.75,156.99 509.36,157.31 511.57,155.40
             513.92,153.37 514.42,148.93 514.92,146.00
             516.37,137.43 517.34,130.65 516.13,122.00
             512.94,99.30 498.20,88.35 476.00,87.09
             472.23,86.88 470.51,87.46 467.00,87.84
             448.14,89.85 433.34,96.98 423.46,114.00
             417.63,124.05 415.31,135.69 413.41,147.00
             410.21,166.11 408.80,186.25 427.00,198.78
             430.48,201.18 433.97,202.73 438.00,203.96
             443.61,205.68 447.21,205.99 453.00,206.00
             465.55,206.02 474.48,205.89 487.00,203.54
             490.18,202.94 497.16,201.76 499.30,199.49
             502.37,196.24 503.96,181.72 504.00,177.00 Z
           M 577.00,95.00
           C 576.07,89.43 574.38,89.10 569.00,89.00
             569.00,89.00 555.00,89.00 555.00,89.00
             552.64,89.00 549.21,88.80 547.14,90.02
             542.92,92.51 542.03,104.28 541.25,109.00
             541.25,109.00 530.61,169.00 530.61,169.00
             530.61,169.00 526.53,193.00 526.53,193.00
             525.98,195.58 524.69,200.31 526.53,202.40
             528.42,204.32 532.56,204.00 535.00,204.00
             535.00,204.00 550.00,204.00 550.00,204.00
             560.83,203.80 559.74,195.01 561.59,184.00
             561.59,184.00 569.00,142.00 569.00,142.00
             569.00,142.00 572.51,124.21 572.51,124.21
             575.19,119.01 589.40,116.03 595.00,115.29
             597.57,114.95 601.37,115.32 603.26,113.40
             604.77,111.87 605.04,109.03 605.42,107.00
             606.28,102.45 610.38,90.09 604.85,87.80
             602.57,86.79 599.40,87.56 597.00,87.80
             587.02,89.03 585.60,89.85 577.00,95.00 Z
           M 900.00,203.00
           C 899.22,206.84 898.35,210.80 895.61,213.79
             889.33,220.64 879.09,218.64 871.00,218.09
             871.00,218.09 857.00,217.28 857.00,217.28
             854.67,217.01 843.71,216.17 842.11,216.78
             837.55,218.51 835.55,230.57 836.16,234.96
             837.08,241.62 849.62,242.37 855.00,243.25
             872.80,246.13 897.03,246.43 913.00,237.12
             928.77,227.94 931.51,212.41 934.25,196.00
             934.25,196.00 945.61,131.00 945.61,131.00
             945.61,131.00 950.13,105.00 950.13,105.00
             950.68,102.34 951.73,96.98 950.13,94.70
             948.40,92.57 941.68,91.24 939.00,90.66
             932.07,89.16 913.04,87.08 906.00,87.00
             893.07,86.86 876.70,89.12 866.00,96.79
             851.00,107.53 847.08,124.00 843.80,141.00
             842.70,146.73 841.07,156.33 841.00,162.00
             840.86,174.29 843.20,186.09 853.09,194.48
             866.06,205.49 884.11,205.10 900.00,203.00 Z
           M 1051.00,177.00
           C 1051.00,177.00 1016.00,178.00 1016.00,178.00
             1008.30,178.02 998.83,179.81 993.43,172.95
             990.12,168.73 991.00,162.16 991.00,157.00
             991.00,157.00 1050.00,157.00 1050.00,157.00
             1052.75,156.99 1056.36,157.31 1058.57,155.40
             1060.92,153.37 1061.42,148.93 1061.92,146.00
             1063.37,137.43 1064.34,130.65 1063.13,122.00
             1059.94,99.30 1045.20,88.35 1023.00,87.09
             1019.23,86.88 1017.51,87.46 1014.00,87.84
             995.14,89.85 980.34,96.98 970.46,114.00
             964.63,124.05 962.31,135.69 960.41,147.00
             957.21,166.11 955.80,186.25 974.00,198.78
             977.48,201.18 980.97,202.73 985.00,203.96
             990.61,205.68 994.21,205.99 1000.00,206.00
             1012.55,206.02 1021.48,205.89 1034.00,203.54
             1037.18,202.94 1044.16,201.76 1046.30,199.49
             1049.37,196.24 1050.96,181.72 1051.00,177.00 Z
           M 235.00,197.00
           C 233.47,203.06 235.19,203.89 241.00,204.00
             241.00,204.00 255.00,204.00 255.00,204.00
             257.31,204.00 260.77,204.20 262.77,202.98
             266.63,200.62 267.66,188.49 268.41,184.00
             268.41,184.00 278.92,125.00 278.92,125.00
             278.92,125.00 283.13,100.00 283.13,100.00
             283.64,97.59 284.65,92.78 283.13,90.74
             281.30,88.63 276.49,89.00 274.00,89.00
             274.00,89.00 260.00,89.00 260.00,89.00
             257.93,89.03 255.21,88.97 253.43,90.17
             249.81,92.62 248.65,105.57 247.92,110.00
             247.92,110.00 240.59,152.00 240.59,152.00
             239.91,156.02 238.33,167.98 236.26,170.79
             232.35,176.09 212.22,182.29 207.17,173.79
             204.61,169.47 207.10,158.94 207.92,154.00
             207.92,154.00 211.92,131.00 211.92,131.00
             211.92,131.00 217.83,96.00 217.83,96.00
             217.98,94.05 218.11,91.37 216.40,90.02
             214.24,88.31 199.55,88.99 196.00,89.00
             193.17,89.01 189.62,88.71 187.30,90.60
             184.36,93.00 184.05,98.45 183.39,102.00
             183.39,102.00 178.59,129.00 178.59,129.00
             178.59,129.00 176.25,143.00 176.25,143.00
             172.83,163.47 164.46,196.32 192.00,204.56
             196.77,205.99 199.14,205.99 204.00,206.00
             219.45,206.02 221.87,203.32 235.00,197.00 Z
           M 577.00,95.00
           C 577.00,95.00 577.00,96.00 577.00,96.00
             577.00,96.00 576.00,95.00 576.00,95.00
             576.00,95.00 577.00,95.00 577.00,95.00 Z
           M 485.00,136.00
           C 485.00,136.00 448.00,136.00 448.00,136.00
             449.70,130.30 451.24,124.89 455.52,120.28
             463.46,112.24 479.16,112.20 483.55,120.28
             485.58,123.77 485.00,131.65 485.00,136.00 Z
           M 1032.00,136.00
           C 1032.00,136.00 995.00,136.00 995.00,136.00
             996.70,130.30 998.24,124.89 1002.52,120.28
             1010.46,112.24 1026.16,112.20 1030.55,120.28
             1032.58,123.77 1032.00,131.65 1032.00,136.00 Z
           M 326.00,178.00
           C 326.00,178.00 336.00,116.00 336.00,116.00
             343.74,115.64 356.48,112.64 362.77,118.42
             366.13,121.49 365.98,124.83 366.00,129.00
             366.06,140.63 363.02,166.95 353.91,174.61
             345.98,181.26 335.25,178.03 326.00,178.00 Z
           M 798.00,116.00
           C 798.00,116.00 793.00,145.00 793.00,145.00
             793.00,145.00 789.08,167.00 789.08,167.00
             788.72,169.14 788.05,174.91 786.83,176.43
             785.37,178.24 780.34,178.27 778.00,178.58
             764.91,180.31 756.69,177.50 757.01,163.00
             757.01,163.00 758.75,149.00 758.75,149.00
             760.55,138.00 761.59,122.34 773.00,116.92
             780.39,113.40 790.16,115.36 798.00,116.00 Z
           M 915.00,116.00
           C 915.00,116.00 905.00,176.00 905.00,176.00
             897.19,176.36 884.61,179.36 878.22,173.58
             873.30,169.13 873.72,161.97 874.58,156.00
             876.26,144.28 877.78,125.98 888.01,118.65
             896.47,112.58 905.66,115.80 915.00,116.00 Z" />
</svg>
